<svg xmlns="http://www.w3.org/2000/svg" viewBox="0 0 64 80" x="0px" y="0px"><title>_</title><g data-name="Comic Talk"><path d="M28.16943,49.40332c-.32666,0-.65576-.01269-.98877-.041a10.02024,10.02024,0,0,1-8.75244-6.09765A9.12661,9.12661,0,0,1,6.69531,30.66992a9.21659,9.21659,0,0,1-1.1206-10.75,11.1709,11.1709,0,0,1,10.65722-6.13965,8.49131,8.49131,0,0,1,6.46973-6.71093,8.53466,8.53466,0,0,1,8.58447,2.28808A8.39358,8.39358,0,0,1,39.36865,6.3623a10.01817,10.01817,0,0,1,8.37793,6.999c4.145-1.43555,8.06983.76953,10.11719,3.66406a8.6881,8.6881,0,0,1-.375,10.99219,8.748,8.748,0,0,1,.562,9.76465,8.86894,8.86894,0,0,1-9.34228,4.248A8.08711,8.08711,0,0,1,42.833,45.793a7.69921,7.69921,0,0,1-5.63916-1.332A10.3251,10.3251,0,0,1,28.16943,49.40332Zm-9.15771-8.60254a.99792.99792,0,0,1,.97217.76563,7.90673,7.90673,0,0,0,7.36132,5.80273,8.40707,8.40707,0,0,0,8.63428-4.92578.99949.99949,0,0,1,1.67676-.26367,5.42572,5.42572,0,0,0,4.90625,1.63183A6.03629,6.03629,0,0,0,47.272,40.48438a.99726.99726,0,0,1,1.12256-.54786,7.0131,7.0131,0,0,0,7.92725-3.15918,6.81666,6.81666,0,0,0-.91162-8.14062.99974.99974,0,0,1,.05371-1.40137,6.66684,6.66684,0,0,0,.7666-9.05469c-1.75733-2.48632-5.24512-4.33886-8.75195-2.5332a.99953.99953,0,0,1-1.44776-.74707,7.91382,7.91382,0,0,0-6.9375-6.55762c-2.439-.335-5.50586.32813-6.78955,3.21485a.99944.99944,0,0,1-1.76709.11426,6.47791,6.47791,0,0,0-7.3291-2.667,6.49832,6.49832,0,0,0-5.09082,5.95117,1.00077,1.00077,0,0,1-1.20117.94239c-4.31055-.88574-7.98242,1.94726-9.57276,4.956A7.196,7.196,0,0,0,8.61426,29.7832.99857.99857,0,0,1,8.78418,31.001a7.07268,7.07268,0,0,0,1.06055,9.0332,6.93337,6.93337,0,0,0,8.626.92578A.99753.99753,0,0,1,19.01172,40.80078Z"/><path d="M49.83105,53.32617a4.277,4.277,0,1,1,4.21973-3.59277A4.3045,4.3045,0,0,1,49.83105,53.32617Zm-.00341-6.55371a2.27666,2.27666,0,1,0,.36523.0293A2.32089,2.32089,0,0,0,49.82764,46.77246Z"/><path d="M56.31787,57.73926a3.00835,3.00835,0,1,1,1.14746-.23047A2.99716,2.99716,0,0,1,56.31787,57.73926Zm-.001-4.002a1.00074,1.00074,0,0,0-.38183.07715.99928.99928,0,0,0-.00049,1.84668.99946.99946,0,1,0,.38232-1.92383Z"/><path d="M21,31a3.5,3.5,0,1,1,3.5-3.5A3.50424,3.50424,0,0,1,21,31Zm0-5a1.5,1.5,0,1,0,1.5,1.5A1.50164,1.50164,0,0,0,21,26Z"/><path d="M32,31a3.5,3.5,0,1,1,3.5-3.5A3.50424,3.50424,0,0,1,32,31Zm0-5a1.5,1.5,0,1,0,1.5,1.5A1.50164,1.50164,0,0,0,32,26Z"/><path d="M43,31a3.5,3.5,0,1,1,3.5-3.5A3.50424,3.50424,0,0,1,43,31Zm0-5a1.5,1.5,0,1,0,1.5,1.5A1.50164,1.50164,0,0,0,43,26Z"/></g></svg>